<?xml version="1.0" encoding="utf-8"?>
<svg version="1.1" id="Layer_1" xmlns="http://www.w3.org/2000/svg" xmlns:xlink="http://www.w3.org/1999/xlink" x="0px" y="0px"
	 viewBox="0 0 132 132" style="enable-background:new 0 0 132 132;" xml:space="preserve" width="132" height="132">
<style type="text/css">
	.st0{fill:#464646;}
</style>
<g id="software">
	<g id="PC">
		<path class="st0" d="M132,104.7V0H0v104.7h55.1v10.6H36.6V132H95v-16.8H76.5v-10.6H132z M42.2,126.4v-5.6h47.2v5.6H42.2z M60.7,115.2v-10.6
			h10.2v10.6H60.7z M126.3,82.7v15.9H5.6V82.7H126.3z M126.3,5.6v71H5.6v-71L126.3,5.6z"/>
		<rect class="st0" x="63.2" y="87.8" width="5.6" height="5.6"/>
	</g>
	<path class="st0" d="M72.9,55l-0.1-11.3v-0.5l-0.5-0.1l-5.1-1.2c-0.5-1.1-1.1-2.1-1.8-3l1.4-5.1l0.1-0.5l-0.4-0.3l-9.8-5.6l-0.5-0.3L56,27.6
		l-3.7,3.8c-0.5-0.1-1-0.1-1.5-0.1h-0.2c-0.6,0-1.2,0-1.8,0.1l-3.7-3.8l-0.4-0.4l-0.4,0.3l-9.7,5.7l-0.4,0.3l0.1,0.5l1.5,5
		c-0.7,1-1.3,2-1.8,3L29,43.3l-0.5,0.1V44l0.1,11.3v0.5l0.5,0.1l5.1,1.2c0.5,1.1,1.1,2.1,1.8,3l-1.4,5.1l-0.1,0.5l0.5,0.3l9.8,5.6
		l0.5,0.3l0.3-0.4l3.6-3.8c0.5,0.1,1,0.1,1.6,0.1h0.2c0.6,0,1.2,0,1.8-0.1l3.7,3.8l0.4,0.4l0.5-0.3l9.7-5.7l0.4-0.3L67.1,65l-1.5-5
		c0.7-0.9,1.3-1.9,1.8-3l5.1-1.3l0.5-0.1L72.9,55z M60.3,40.2l1,1.2c0.7,0.9,1.2,1.9,1.7,2.9l0.6,1.4l0.1,0.3l0.3,0.1l3.9,1v4.7
		l-3.9,1l-0.3,0.1l-0.1,0.3L63,54.6c-0.4,1.1-1,2.1-1.7,3l-0.9,1.2l-0.2,0.3l0.1,0.3l1.1,3.9l-4,2.4l-2.8-2.9l-0.2-0.2l-0.3,0
		l-1.5,0.2c-0.6,0.1-1.1,0.1-1.7,0.1h-0.1c-0.5,0-1.1,0-1.6-0.1l-1.5-0.2h-0.3L47,62.9l-2.8,3l-4.1-2.3l1.1-3.9l0.1-0.3L41.1,59
		l-1-1.2c-0.7-0.9-1.3-1.9-1.7-2.9l-0.6-1.4l-0.1-0.3L37.3,53l-3.9-1v-4.7l3.9-1l0.3-0.1l0.1-0.3l0.6-1.4c0.4-1.1,1-2.1,1.7-3l1-1.3
		l0.2-0.3l-0.1-0.3L40,35.8l4-2.4l2.8,2.9l0.2,0.2l0.3,0l1.5-0.2c0.6-0.1,1.1-0.1,1.7-0.1h0.1c0.5,0,1,0.1,1.6,0.1l1.5,0.2h0.3
		l0.2-0.2l2.8-2.9l4.1,2.3l-1.1,3.9l-0.1,0.3L60.3,40.2z"/>
	<path class="st0" d="M50.7,56.9c-4.1,0-7.4-3.3-7.4-7.4s3.3-7.4,7.4-7.4s7.4,3.3,7.4,7.4c0,0,0,0,0,0C58.1,53.6,54.8,56.9,50.7,56.9z
		 M50.7,47.1c-1.3,0-2.4,1.1-2.4,2.4c0,1.3,1.1,2.4,2.4,2.4c1.3,0,2.4-1.1,2.4-2.4c0,0,0,0,0,0C53.1,48.2,52,47.1,50.7,47.1z"/>
	<path class="st0" d="M103.3,32l-0.3-0.3l-2.6-2.5c0.1-0.7,0.1-1.5,0-2.2l2.6-2.5l0.3-0.3l0.2-0.2l-0.2-0.3l-0.2-0.3l-4.1-7l-0.2-0.3l-0.2-0.3
		L98.3,16L98,16.1l-3.4,1c-0.6-0.4-1.3-0.8-1.9-1.1l-0.9-3.5l-0.1-0.4l-0.1-0.3h-0.7h-8.1h-0.7l-0.1,0.3L82,12.5L81.1,16
		c-0.3,0.1-0.6,0.3-0.9,0.4l-0.1,0.1c-0.3,0.2-0.6,0.4-0.9,0.6l-3.5-1L75.4,16L75.1,16l-0.2,0.3l-0.2,0.3l-4,7l-0.2,0.3l-0.2,0.3
		l0.2,0.2l0.3,0.3l2.6,2.5c-0.1,0.7-0.1,1.5,0,2.2l-2.6,2.5L70.6,32l-0.2,0.2l0.2,0.3l0.2,0.3l4.1,7l0.2,0.3l0.2,0.3l0.3-0.1
		l0.3-0.1l3.4-1c0.6,0.4,1.3,0.8,2,1.1l0.8,3.7l0.1,0.4l0.1,0.3h0.7H91h0.7l0.1-0.3l0.1-0.4l0.8-3.5c0.3-0.2,0.6-0.3,0.9-0.4
		l0.1-0.1c0.3-0.2,0.6-0.4,0.9-0.6l3.5,1l0.4,0.1l0.3,0.1l0.2-0.3l0.2-0.3l4-7l0.2-0.3l0.2-0.3L103.3,32z M93.8,34.6l-0.2,0.1
		l-0.2,0.1l-0.9,0.7c-0.3,0.2-0.7,0.5-1,0.7h-0.1c-0.3,0.2-0.7,0.3-1,0.5l-1,0.4l-0.2,0.1L89,37.3v0.2L89,37.7l-0.6,2.5h-2.8
		l-0.6-2.5l-0.1-0.2v-0.2l-0.2-0.1l-0.2-0.1l-1-0.4c-0.7-0.3-1.4-0.7-2-1.2l-0.9-0.7l-0.2-0.1l-0.2-0.1H80l-0.2,0.1l-2.5,0.7
		l-1.5-2.3l1.9-1.8l0.2-0.2L78,31v-0.2v-0.2l-0.2-1.1c-0.1-0.8-0.1-1.6,0-2.4L78,26v-0.2v-0.2l-0.2-0.1l-0.2-0.2l-1.9-1.8l1.4-2.4
		l2.5,0.7l0.2,0.1l0.2,0l0.2-0.1l0.2-0.1l0.9-0.7c0.3-0.2,0.7-0.5,1-0.7l0.1,0c0.3-0.1,0.6-0.3,1-0.5l1-0.4l0.2-0.1l0.2-0.1V19
		l0.1-0.2l0.6-2.5h2.8l0.6,2.5L89,19v0.2l0.2,0.1l0.2,0.1l1,0.4c0.7,0.3,1.4,0.7,2,1.2l0.9,0.7l0.2,0.1l0.2,0.1l0.2-0.1l0.2-0.1
		l2.6-0.8l1.3,2.4l-1.9,1.8L96,25.4l-0.2,0.1v0.2v0.2L96,27c0.1,0.8,0.1,1.6,0,2.4l-0.1,1.1v0.2v0.2l0.1,0.1l0.2,0.2l1.9,1.8
		l-1.3,2.4l-2.5-0.7l-0.2-0.1L93.8,34.6z M70.9,32.4l0.1,0.2L70.9,32.4z"/>
	<path class="st0" d="M91,26c-1.3-2.2-4.1-3-6.3-1.8s-3,4.1-1.8,6.3c1.3,2.2,4.1,3,6.3,1.8c0,0,0,0,0,0c1.1-0.6,1.9-1.6,2.2-2.8
		C91.8,28.3,91.6,27.1,91,26z M87.9,28.6c-0.1,0.4-0.5,0.7-0.9,0.7c-0.6,0-1-0.4-1-1c0-0.1,0-0.2,0-0.3c0.1-0.2,0.2-0.5,0.4-0.6
		c0.2-0.1,0.3-0.1,0.5-0.1c0.3,0,0.7,0.2,0.8,0.5C87.9,28,87.9,28.3,87.9,28.6L87.9,28.6z M87.3,27L87.3,27z M86,32.4L86,32.4
		L86,32.4z M86.6,29.6L86.6,29.6z"/>
</g>
</svg>
