<?xml version="1.0" encoding="utf-8"?>
<svg version="1.1" id="Layer_1" xmlns="http://www.w3.org/2000/svg" xmlns:xlink="http://www.w3.org/1999/xlink" x="0px" y="0px"
	 viewBox="0 0 132 132" style="enable-background:new 0 0 132 132;" xml:space="preserve" width="132" height="132">
<style type="text/css">
	.st0{fill:#464646;}
</style>
<path class="st0" d="M0,0v132h132V0H0z M126.4,126.4H5.6V5.6h120.7V126.4z"/>
<path class="st0" d="M64.2,40.1c-7.5,0-13.5-6.1-13.5-13.5C50.7,19,56.7,13,64.2,13S77.8,19,77.8,26.5v0C77.8,34,71.7,40.1,64.2,40.1z
	 M64.2,18.5c-4.5,0-8.1,3.6-8.1,8.1s3.6,8.1,8.1,8.1c4.5,0,8.1-3.6,8.1-8.1c0,0,0,0,0,0C72.3,22.1,68.7,18.5,64.2,18.5z"/>
<path class="st0" d="M119.2,61.2H91.7v-19H38.1v19H13.8v25h6.5v32.6h92.4V86.3h6.5V61.2z M43.5,47.8h42.6v13.5h-6.1v-4h-5.5v4H55.2V57h-5.5v4.3
	h-6.2L43.5,47.8z M107.2,113.4H25.7V86.3h81.5V113.4z M113.7,80.8H19.3V66.7h94.5L113.7,80.8z"/>
</svg>
