<?xml version="1.0" encoding="utf-8"?>
<svg version="1.1" id="Layer_1" xmlns="http://www.w3.org/2000/svg" xmlns:xlink="http://www.w3.org/1999/xlink" x="0px" y="0px"
	 viewBox="0 0 132 132" style="enable-background:new 0 0 132 132;" xml:space="preserve" width="132" height="132">
<style type="text/css">
	.st0{fill:#464646;}
</style>
<g>
	<path class="st0" d="M89.6,99.7h-5.6v-8.4h5.6V99.7L89.6,99.7z M103,106.8H70.4V84.2H103V106.8L103,106.8z M79.1,72.4c0-4.2,3.4-7.6,7.6-7.6
			c4.2,0,7.6,3.4,7.6,7.6v6.1H79.1V72.4L79.1,72.4z M100,72.4c0-7.3-5.9-13.2-13.2-13.2c-7.3,0-13.2,5.9-13.2,13.2v6.1h-8.7v33.9
			h43.9V78.6H100V72.4L100,72.4z M46.9,126.4V46.9h79.5v79.5H46.9L46.9,126.4z M41.2,126.4h-15V26.2h100.1v15H41.2V126.4L41.2,126.4
			z M5.6,5.6h120.7v15H20.6v105.8h-15V5.6L5.6,5.6z M0,0v132h132V0H0L0,0z"/>
</g>
</svg>
