<?xml version="1.0" encoding="utf-8"?>
<svg version="1.1" id="Layer_1" xmlns="http://www.w3.org/2000/svg" xmlns:xlink="http://www.w3.org/1999/xlink" x="0px" y="0px"
	 viewBox="0 0 132 132" style="enable-background:new 0 0 132 132;" xml:space="preserve" width="132" height="132">
<style type="text/css">
	.st0{fill:#464646;}
</style>
<path class="st0" d="M75.8,77H53.9V55h21.9V77z M59.5,71.4h10.7V60.7H59.5V71.4z"/>
<path class="st0" d="M114.1,109.6h-22V87.7h22V109.6z M97.7,104h10.7V93.3H97.7L97.7,104z"/>
<path class="st0" d="M0,0v132h132V0H0z M126.4,126.4H5.6v-24.9h68.1l-7.1,7.1l4,4l14-14L70.9,84.7l-4,4l7.1,7.1H5.6V69.9h30.9l-7.1,7.1l4,4
	l14-14L33.7,53.2l-4,4l7.1,7.1H5.6V5.6h120.7L126.4,126.4z"/>
<polygon class="st0" points="41.5,36.2 73.7,36.2 66.7,43.3 70.6,47.2 84.7,33.2 70.9,19.5 66.9,23.5 74,30.6 41.5,30.6 41.5,22.4 19.5,22.4 
	19.5,44.3 41.5,44.3 "/>
<path class="st0" d="M113.3,44.3h-22v-22h22V44.3z M97,38.7h10.7V28H97V38.7z"/>
</svg>
