<?xml version="1.0" encoding="utf-8"?>
<svg version="1.1" id="Layer_1" xmlns="http://www.w3.org/2000/svg" xmlns:xlink="http://www.w3.org/1999/xlink" x="0px" y="0px"
	 viewBox="0 0 132 132" style="enable-background:new 0 0 132 132;" xml:space="preserve" width="132" height="132">
<style type="text/css">
	.st0{fill:#E0301E;}
</style>
<g>
	<path class="st0" id="Outline-v2_1_" d="M66,26.1c-1.8,0-3.6,0.9-4.6,2.6L22.5,96.2c-2,3.5,0.5,7.9,4.6,7.9h77.9c4.1,0,6.6-4.4,4.6-7.9
		L70.6,28.7C69.6,27,67.8,26.1,66,26.1z M27.5,98.6L66,31.9l38.5,66.7H27.5z M63.2,54.2v23h5.5v-23H63.2z M61.9,87
		c0,2.3,1.9,4.1,4.1,4.1c2.3,0,4.1-1.9,4.1-4.1s-1.9-4.1-4.1-4.1C63.7,82.8,61.9,84.7,61.9,87z"/>
	<path class="st0" d="M0,0v132h132V0H0z M126.4,126.4H5.6V5.6h120.7V126.4z"/>
</g>
</svg>
