<?xml version="1.0" encoding="UTF-8"?>
<svg width="12px" height="12px" viewBox="0 0 12 12" version="1.1" xmlns="http://www.w3.org/2000/svg" xmlns:xlink="http://www.w3.org/1999/xlink">
    <title>Slice</title>
    <g id="TLA_Filters_17.6.22" stroke="none" stroke-width="1" fill="none" fill-rule="evenodd">
        <path d="M11.2941667,0 C11.2941667,0 6,5.29416667 6,5.29416667 C6,5.29416667 0.706,0 0.706,0 C0.706,0 0,0.705833333 0,0.705833333 C0,0.705833333 5.29416667,6 5.29416667,6 C5.29416667,6 0,11.2941667 0,11.2941667 C0,11.2941667 0.706,12 0.706,12 C0.706,12 6,6.70583333 6,6.70583333 C6,6.70583333 11.2941667,12 11.2941667,12 C11.2941667,12 12,11.2941667 12,11.2941667 C12,11.2941667 6.706,6 6.706,6 C6.706,6 12,0.705833333 12,0.705833333 C12,0.705833333 11.2941667,0 11.2941667,0 Z" id="Path-Copy" fill="#ffffff" fill-rule="nonzero"></path>
    </g>
</svg>