<?xml version="1.0" encoding="utf-8"?>
<svg version="1.1" id="Layer_1" xmlns="http://www.w3.org/2000/svg" xmlns:xlink="http://www.w3.org/1999/xlink" x="0px" y="0px"
	 viewBox="0 0 132 132" style="enable-background:new 0 0 132 132;" xml:space="preserve" width="132" height="132">
<style type="text/css">
	.st0{fill:#DB536A;}
</style>
<g id="rehabilitation">
	<path class="st0" d="M66,27.4c-6.4,0-10.6,5.3-10.6,12.8c0,6,0.7,10.5,3.5,13.6c1.4,2.3,3.5,4.5,7.1,4.5s5.7-2.3,7.1-4.5
		c2.8-3,3.5-7.5,3.5-13.6C76.6,32.7,72.4,27.4,66,27.4z M69.5,50c-2.1,2.3-2.8,2.3-3.5,2.3s-1.4,0-2.8-2.3c-1.4-1.5-2.1-5.3-2.1-9.8
		c0-3.8,2.1-6.8,5-6.8s5.7,3,5.7,6.8C71.7,44.8,70.2,47.8,69.5,50z"/>
	<path class="st0" d="M0,0v132h132V0H0z M51.8,126.4H38.5v-24.2h13.3V126.4z M63.2,126.4h-5.8v-24.2h5.8V126.4z M74.6,126.4h-5.8v-24.2h5.8
		V126.4z M93.5,126.4H80.2v-24.2h13.3V126.4z M104.4,126.4h-5.2v-25.2c0-2.6-2.1-4.7-4.7-4.7l0,0h-57c-2.6,0-4.7,2.1-4.7,4.7l0,0
		v25.2h-5.2V99c0-3.5,2.9-6.4,6.4-6.3h64c3.5,0,6.4,2.8,6.4,6.3V126.4z M71.2,74.3V87H60.9V74.3h-5.6V87h-4.4V64.9
		c0-0.2,0-0.4,0.1-0.6h5.1c4.2,5.4,12,6.4,17.5,2.2c0.8-0.6,1.6-1.4,2.2-2.2H81c0.1,0.2,0.1,0.4,0.1,0.6V87h-4.3V74.3H71.2z
		 M126.4,126.4H110V99c0-6.4-5.1-11.7-11.5-12c-0.2,0-0.3,0-0.5,0H86.8V64.9c0-3.4-2.5-6.2-5.5-6.2h-8.3c-1.4,2.5-3.5,4.8-6.9,4.8
		s-5.5-2.4-6.9-4.8h-8.3c-3,0-5.5,2.8-5.5,6.2V87H34c-6.6,0-12,5.4-12,12v27.4H5.6V5.6h120.7V126.4z"/>
	<path class="st0" d="M38.2,81.4c-13.6-15.6-11.9-39.2,3.6-52.8c15-13,37.5-12.1,51.4,2.1h-9.4v5.6h18.6V18h-5.6v8.3
		c-16.7-16.9-44-17.1-60.9-0.3c-15,14.8-17,38.2-4.9,55.4H38.2z"/>
	<path class="st0" d="M94.5,81.4h7.2c5.1-7.2,7.8-15.8,7.8-24.6c0-1.6-0.1-3.3-0.3-4.9h-5.7c0.2,1.6,0.3,3.3,0.3,4.9
		C103.8,65.8,100.5,74.6,94.5,81.4z"/>
</g>
</svg>
