<?xml version="1.0" encoding="utf-8"?>
<svg version="1.1" id="Layer_1" xmlns="http://www.w3.org/2000/svg" xmlns:xlink="http://www.w3.org/1999/xlink" x="0px" y="0px"
	 viewBox="0 0 132 132" style="enable-background:new 0 0 132 132;" xml:space="preserve" width="132" height="132">
<style type="text/css">
	.st0{fill:#e0301e;}
</style>
<path class="st0" d="M132,0H0v132h27.7l36.6-35l36.7,35h31V0z M35.8,115l10.8-34.5l13,12.2L35.8,115z M48.3,50.9H36.1l12.1-5.2V50.9z M48.3,24.4
	H36.1l12.1-5.2V24.4z M64.2,88.3L48.6,73.7l5.2-16.5h20.8l5.2,16.5L64.2,88.3z M73.8,30.8v6.9H54.6v-6.9H73.8z M54.6,24.4v-6.9h19.1
	v6.9H54.6z M73.8,44.1v6.9H54.6v-6.9H73.8z M68.9,92.6l13-12.1L92.7,115L68.9,92.6z M126.4,126.4h-23.7L81,57.3l23.5,0.2V65h6.4
	V54.1c0-0.1,0-0.2,0-0.3v-0.1c0-0.3-0.1-0.6-0.2-0.9c-0.1-0.2-0.2-0.5-0.4-0.7l-0.1-0.1c-0.1-0.1-0.2-0.2-0.3-0.3l-0.1-0.1l-0.1-0.1
	l-0.2-0.1l-0.2-0.1c-0.1,0-0.1-0.1-0.2-0.1L80.1,38.8v-8h24.4v7.7h6.4V25.3v-0.7l-1.7-0.7l-0.2-0.1L78.2,11.4
	c-0.4-0.2-0.8-0.3-1.3-0.3H51.4c-0.4,0-0.9,0.1-1.3,0.3v0c-1.4,0.5-8.8,4-32.8,14.3l0,12.7h6.4v-7.7h24.4v8L19.4,51.2l-0.2,0.1
	L19,51.4l-0.5,0.3l-0.1,0.1L18,52.4c0,0,0,0.1-0.1,0.1l-0.2,0.4l-0.1,0.2v0.1l-0.1,0.2v0.2v0.1v0.1c0,0.1,0,0.1,0,0.2v11H24v-7.7
	h23.3l-21.8,69.1H5.6V5.6h120.8V126.4z M80.1,50.9v-5.2l12.1,5.2H80.1z M80.1,24.4v-5.2l12.1,5.2H80.1z"/>
</svg>
