<?xml version="1.0" encoding="utf-8"?>
<svg version="1.1" id="Layer_1" xmlns="http://www.w3.org/2000/svg" xmlns:xlink="http://www.w3.org/1999/xlink" x="0px" y="0px"
	 viewBox="0 0 132 132" style="enable-background:new 0 0 132 132;" xml:space="preserve" width="132" height="132">
<style type="text/css">
	.st0{fill:#E0301E;}
</style>
<g>
	<path class="st0" d="M17.3,83.4l12.6-12.6l12.6,12.6L29.9,96L17.3,83.4L17.3,83.4z M29.9,63.2L9.7,83.4l20.2,20.2l20.2-20.2L29.9,63.2
		L29.9,63.2z M81.6,105.9H63.7V88.2h17.9V105.9L81.6,105.9z M115.1,105.9H97.2V88.2h17.9V105.9L115.1,105.9z M5.6,126.4V5.9h21.5
		v32.7L12.4,47v18.5H18V50.3l11.9-6.8l11.9,6.8v15.3h5.6V47l-14.7-8.5V5.9h93.6v100h-5.9v-23H91.9v23h-5v-23H58.3v23H41.2v5.6h85.2
		v14.9H5.6L5.6,126.4z M32.7,0.2V0h-5.6v0.2H0V132h132V0.2H32.7L32.7,0.2z"/>
</g>
</svg>
