<?xml version="1.0" encoding="utf-8"?>
<svg version="1.1" id="Layer_1" xmlns="http://www.w3.org/2000/svg" xmlns:xlink="http://www.w3.org/1999/xlink" x="0px" y="0px"
	 viewBox="0 0 132 132" style="enable-background:new 0 0 132 132;" xml:space="preserve" width="132" height="132">
<style type="text/css">
	.st0{fill:#E0301E;}
</style>
<path class="st0" d="M0,0v132h132V0H0z M126.4,126.4H5.6V5.6h120.7V126.4z"/>
<path class="st0" d="M23.1,103.4h85.8c5.9,0,10.7-4.8,10.7-10.8c0-5.2-3.7-9.6-8.8-10.5c-0.9-21.8-12.4-40.8-29.3-48.4
	c-1.9-4.2-6.1-6.9-10.7-6.9h-9.8c-4.6,0-8.8,2.7-10.7,6.9c-17,7.6-28.5,26.7-29.3,48.5c-5.8,1.2-9.5,7-8.3,12.8
	C13.6,99.9,18,103.4,23.1,103.4z M49.1,40.6v23.8h5.6V38.7c0-3.4,2.8-6.2,6.2-6.2h9.8c3.4,0,6.2,2.8,6.2,6.2c0,0,0,0,0,0v25.8h5.6
	V40.6c13,7.6,21.8,23.4,22.6,41.4H26.5C27.3,64,36,48.2,49.1,40.6z M23.1,87.6h85.8c2.8,0,5.1,2.3,5.1,5.1c0,2.8-2.3,5.1-5.1,5.1
	c0,0,0,0,0,0H23.1c-2.8,0-5.1-2.3-5.1-5.1C18,89.9,20.3,87.6,23.1,87.6C23.1,87.6,23.1,87.6,23.1,87.6z"/>
<rect class="st0" x="63" y="41.7" width="5.6" height="29.2"/>
</svg>
