<?xml version="1.0" encoding="utf-8"?>
<svg version="1.1" id="Layer_1" xmlns="http://www.w3.org/2000/svg" xmlns:xlink="http://www.w3.org/1999/xlink" x="0px" y="0px"
	 viewBox="0 0 132 132" style="enable-background:new 0 0 132 132;" xml:space="preserve" width="132" height="132">
<style type="text/css">
	.st0{fill:#E0301E;}
</style>
<g>
	<path class="st0" d="M66,31.3c19.1,0,34.7,15.6,34.7,34.7c0,19.1-15.6,34.7-34.7,34.7c-19.1,0-34.7-15.6-34.7-34.7
			C31.3,46.9,46.9,31.3,66,31.3L66,31.3z M66,106.3c22.2,0,40.3-18.1,40.3-40.3c0-22.2-18.1-40.3-40.3-40.3
			c-22.2,0-40.3,18.1-40.3,40.3C25.7,88.2,43.8,106.3,66,106.3L66,106.3z M126.4,126.4H5.6V5.6h120.7V126.4L126.4,126.4z M0,0v132
			h132V0H0L0,0z M66,48.8c5,0,9.1,4.1,9.1,9.1c0,3.6-2.1,6.8-5.4,8.3L68,66.8v14.4c0,1.1-0.9,2-2,2c-1.1,0-2-0.9-2-2V66.8l-1.7-0.7
			c-3.3-1.5-5.4-4.7-5.4-8.3C56.9,52.8,61,48.8,66,48.8L66,48.8z M58.4,70.4v10.9c0,4.2,3.4,7.6,7.6,7.6c4.2,0,7.6-3.4,7.6-7.6V70.4
			c4.3-2.6,7.1-7.4,7.1-12.5c0-8.1-6.6-14.7-14.7-14.7c-8.1,0-14.7,6.6-14.7,14.7C51.3,63,54,67.7,58.4,70.4L58.4,70.4z"/>
</g>
</svg>
