<?xml version="1.0" encoding="utf-8"?>
<svg version="1.1" id="Layer_1" xmlns="http://www.w3.org/2000/svg" xmlns:xlink="http://www.w3.org/1999/xlink" x="0px" y="0px"
	 viewBox="0 0 132 132" style="enable-background:new 0 0 132 132;" xml:space="preserve" width="132" height="132">
<style type="text/css">
	.st0{fill:#E0301E;}
</style>
<g>
	<path class="st0" d="M5.6,126.4v-26H54c0.5,2.4,1.7,4.5,3.5,6.3c2.5,2.5,5.8,3.8,9.2,3.8c2.5,0,4.9-0.7,7-2.1l7.3,7.3l4-4l-7.3-7.3
		c0.8-1.2,1.4-2.6,1.7-4.1h46.9v26H5.6L5.6,126.4z M126.4,5.6v26H45.6C45,29.2,43.8,27,42,25.2c-5.1-5.1-13.4-5.1-18.5,0
		c-1.8,1.8-3,4-3.5,6.4H5.6v-26H126.4L126.4,5.6z M38.1,39.7c-2.9,2.9-7.6,2.9-10.5,0c-1.4-1.4-2.2-3.3-2.2-5.3c0-2,0.8-3.9,2.2-5.3
		c1.5-1.5,3.4-2.2,5.3-2.2c1.9,0,3.8,0.7,5.3,2.2c1.4,1.4,2.2,3.3,2.2,5.3C40.2,36.4,39.5,38.3,38.1,39.7L38.1,39.7z M108.5,63.2
		c-0.5-2.3-1.7-4.6-3.5-6.4l0,0c-5.1-5.1-13.4-5.1-18.5,0c-1.8,1.8-3,4-3.5,6.4H5.6v-26H20c0.5,2.4,1.7,4.7,3.5,6.5
		c2.5,2.5,5.9,3.8,9.2,3.8c2.4,0,4.9-0.7,7-2.1l7.3,7.3l4-4l-7.3-7.3c0.8-1.3,1.4-2.7,1.8-4.3h80.8v26H108.5L108.5,63.2z M101,71.3
		c-1.4,1.4-3.3,2.2-5.3,2.2c-2,0-3.9-0.8-5.3-2.2c-1.4-1.4-2.2-3.3-2.2-5.3c0-2,0.8-3.9,2.2-5.3c1.5-1.5,3.4-2.2,5.3-2.2
		c1.9,0,3.8,0.7,5.3,2.2C103.9,63.7,103.9,68.4,101,71.3L101,71.3z M66.7,104.9c-2,0-3.9-0.8-5.3-2.2c-1.4-1.4-2.2-3.3-2.2-5.3
		s0.8-3.9,2.2-5.3c1.5-1.5,3.4-2.2,5.3-2.2c1.9,0,3.8,0.7,5.3,2.2c1.4,1.4,2.2,3.3,2.2,5.3s-0.8,3.9-2.2,5.3
		C70.6,104.1,68.7,104.9,66.7,104.9L66.7,104.9z M79.5,94.8C79,92.3,77.8,90,76,88.2l0,0c-5.1-5.1-13.4-5.1-18.5,0
		c-1.8,1.8-3,4.1-3.6,6.6H5.6v-26h77.3c0.5,2.4,1.7,4.7,3.5,6.5c2.5,2.5,5.7,3.8,9.2,3.8c2.5,0,4.9-0.7,7-2.1l7.3,7.3l4-4l-7.3-7.3
		c0.8-1.3,1.4-2.8,1.7-4.3h17.9v26H79.5L79.5,94.8z M0,0v132h132V0H0L0,0z"/>
</g>
</svg>
