<?xml version="1.0" encoding="utf-8"?>
<svg version="1.1" id="Layer_1" xmlns="http://www.w3.org/2000/svg" xmlns:xlink="http://www.w3.org/1999/xlink" x="0px" y="0px"
	 viewBox="0 0 132 132" style="enable-background:new 0 0 132 132;" xml:space="preserve" width="132" height="132">
<style type="text/css">
	.st0{fill:#E0301E;}
</style>
<path class="st0" d="M0,0v132h132V0H0z M126.4,126.4H5.6V5.6h120.7V126.4z"/>
<path class="st0" d="M41.9,93.9c0,12.7,10.3,23,23,23.1c6.1,0,12-2.4,16.3-6.8l28.6-28.6c9-9,9-23.6,0-32.6s-23.6-9-32.6,0L48.7,77.6
	C44.4,81.9,41.9,87.7,41.9,93.9z M81.3,53c6.8-6.8,17.8-6.8,24.6,0c6.8,6.8,6.8,17.8,0,24.6L93.6,89.9L69,65.3L81.3,53z M65,69.2
	l24.6,24.6l-12.3,12.3c-6.4,7.1-17.5,7.7-24.6,1.3C45.6,101,45,90,51.4,82.8c0.4-0.4,0.8-0.9,1.3-1.3L65,69.2z"/>
<path class="st0" d="M38.4,61.4c12.7,0,23-10.3,23-23s-10.3-23-23-23s-23,10.3-23,23C15.4,51.1,25.7,61.4,38.4,61.4z M55.8,38.4
	c0,8.5-6.2,15.8-14.6,17.1V21.2C49.6,22.6,55.8,29.9,55.8,38.4L55.8,38.4z M35.6,21.2v34.3c-9.5-1.7-15.8-10.7-14.2-20.2
	C22.7,28.1,28.4,22.5,35.6,21.2z"/>
</svg>
