<?xml version="1.0" encoding="utf-8"?>
<svg version="1.1" id="Layer_1" xmlns="http://www.w3.org/2000/svg" xmlns:xlink="http://www.w3.org/1999/xlink" x="0px" y="0px"
	 viewBox="0 0 132 132" style="enable-background:new 0 0 132 132;" xml:space="preserve" width="132" height="132">
<style type="text/css">
	.st0{fill:#e0301e;}
</style>
<path class="st0" d="M0,0v132h132V0H0z M126.4,126.4H5.6V5.6h120.7V126.4z"/>
<path class="st0" d="M35.3,68.6c0.2-0.6,1.6-2.5,4.4-5.9c1.6-2.1,3.4-3.9,5.4-5.6h37.5c1.9,0.1,3.6,0.9,5,2.2l9.1,9.9c2.2,2.3,4.9,4.1,7.8,5.3
	c7.3,2.9,10.6,4.7,11.8,5.5v12.7h-1.3l0,0c-3.1,0-6.1,2.3-7.7,5.7c-2.2,5-8,7.3-13,5.1c-2.3-1-4.1-2.8-5.1-5.1
	c-1.5-3.5-4.6-5.8-7.8-5.8H62.4l0,0c-3.2,0-6.3,2.3-7.8,5.8c-2.1,5-7.9,7.3-12.9,5.2c-2.3-1-4.2-2.9-5.2-5.2
	c-0.5-1.2-1.6-1.9-3.7-3.3c-5.5-3.7-16.9-11.5-16.5-27.7c0.4-12.1,3.7-21.2,10.1-26.9c4.5-4,10.2-6.3,16.2-6.8v4.7c0,3.9,3.1,7,7,7
	h15.2l0-2.8V39h11.7v-5.6H64.9v-4.5h11.7v-5.6H64.9l0-6.4H49.6c-3.9,0-7,3.2-7,7v4.2c-7.3,0.4-14.3,3.3-19.9,8.2
	c-7.5,6.8-11.6,17.2-11.9,31c-0.6,19.3,13.1,28.5,18.9,32.5c0.7,0.4,1.4,1,1.8,1.3c3.6,7.8,12.7,11.2,20.5,7.6
	c3.5-1.6,6.3-4.4,7.8-8c0.6-1.3,1.7-2.4,2.6-2.4l0,0h19.2c0.9,0,2.1,1,2.6,2.4c3.4,7.8,12.5,11.4,20.3,8c3.6-1.6,6.4-4.4,8-8
	c0.6-1.4,3.2-4,9.4-2.9c0.7,0.1-1.9-0.3,0,0V79.2c0-2.4-2.3-3.9-6.4-6c-2.9-1.4-6.4-2.9-8.9-3.8c-2.2-0.9-4.1-2.2-5.8-3.9l-9.1-9.9
	c-2.4-2.4-5.7-3.9-9.2-4H44.7c-1.4,0-2.8,0.8-4.8,2.6c-1.5,1.4-2.9,3-4.2,4.6c-1.3,1.5-6.1,7.5-6.7,9.8 M48.2,23.9
	c0-0.8,0.6-1.4,1.4-1.4c0,0,0,0,0,0h9.6v17.3h-9.7c-0.8,0-1.4-0.6-1.4-1.4L48.2,23.9z"/>
</svg>
