<?xml version="1.0" encoding="utf-8"?>
<svg version="1.1" id="Layer_1" xmlns="http://www.w3.org/2000/svg" xmlns:xlink="http://www.w3.org/1999/xlink" x="0px" y="0px"
	 viewBox="0 0 132 132" style="enable-background:new 0 0 132 132;" xml:space="preserve" width="132" height="132">
<style type="text/css">
	.st0{fill:#E0301E;}
</style>
<g>
	<path class="st0" d="M52.5,29.3c6.7-6.7,15.6-10.4,25.1-10.4c9.5,0,18.4,3.7,25.1,10.4c10.5,10.5,13,25.9,7.6,38.7h-7.5V50.3H88V31.5H67.7v11.2
		H52.9v25.4h-8C39.6,55.2,42.1,39.8,52.5,29.3L52.5,29.3z M67.7,68.1h-9.1V48.3h9.1V68.1L67.7,68.1z M97.1,68.1H88V55.9h9.1V68.1
		L97.1,68.1z M73.3,42.6v-5.6h9.1v13.2v17.8h-9.1V42.6L73.3,42.6z M102.7,79.5C96,86.1,87.1,89.8,77.6,89.8
		c-9.5,0-18.4-3.7-25.1-10.4c-1.8-1.8-3.3-3.7-4.7-5.8h5h14.7h5.6h9.1H88h14.7h4.6C106,75.7,104.5,77.7,102.7,79.5L102.7,79.5z
		 M18.1,117.9l32.5-32.5c7.5,6.5,17,10.1,27,10.1c11,0,21.3-4.3,29-12c16-16,16-42.1,0-58.1c-7.8-7.8-18.1-12-29-12
		c-11,0-21.3,4.3-29,12c-15.3,15.3-16,39.9-1.9,56l-32.5,32.5L18.1,117.9L18.1,117.9z M126.4,126.4H5.6V5.6h120.7V126.4L126.4,126.4
		z M0,0v132h132V0H0L0,0z"/>
</g>
</svg>
