<?xml version="1.0" encoding="utf-8"?>
<svg version="1.1" id="Layer_1" xmlns="http://www.w3.org/2000/svg" xmlns:xlink="http://www.w3.org/1999/xlink" x="0px" y="0px"
	 viewBox="0 0 132 132" style="enable-background:new 0 0 132 132;" xml:space="preserve" width="132" height="132">
<style type="text/css">
	.st0{fill:#e0301e;}
</style>
<line class="st0" x1="52.1" y1="30.5" x2="52.1" y2="30.5"/>
<path class="st0" d="M85.3,0H74.3v17.1l8.1,3.5c2.1,0.9,3.5,3,3.5,5.3v13.8c2,1.3,3.9,2.7,5.6,4.4V25.9c0-4.5-2.7-8.7-6.9-10.5l-4.7-2V5.6h46.5
	v120.7h-11.8V72.4H98v-2.2c0-11.8-6.6-22.7-17.2-28.1V30.5h-5.6v27.8c0,0.3,0,0.6-0.1,0.9c-0.3,0.1-0.7,0.1-1,0.1H46.8
	c-0.6,0-1.1-0.5-1.1-1c0,0,0,0,0,0V29.5c-0.1-2.5,1-4.8,2.8-6.4l7.9-7V0H0v132h132V0H85.3z M46.8,65h27.4c4.4,0,6.7-2.3,6.7-6.7
	v-9.7c7.2,4.8,11.5,12.9,11.5,21.6v2.2H40.2v-2.2c0-2.7,0.4-5.3,1.2-7.9C42.7,64,44.7,64.9,46.8,65z M5.6,126.4V5.6h45.2v7.9l-6,5.3
	c-3.1,2.7-4.8,6.7-4.7,10.8v22.9c-3.6,5.2-5.5,11.4-5.5,17.8v2.2H18v54H5.6z M49.2,126.4c1.5-9.4,10.4-15.8,19.9-14.3
	c7.3,1.2,13.1,7,14.3,14.3H49.2z M89,126.4c-1.3-12.6-12.6-21.7-25.2-20.4c-10.7,1.1-19.2,9.6-20.4,20.4H23.7V78h85.3v48.3L89,126.4
	z"/>
</svg>
