<?xml version="1.0" encoding="utf-8"?>
<svg version="1.1" id="Layer_1" xmlns="http://www.w3.org/2000/svg" xmlns:xlink="http://www.w3.org/1999/xlink" x="0px" y="0px"
	 viewBox="0 0 132 132" style="enable-background:new 0 0 132 132;" xml:space="preserve" width="132" height="132">
<style type="text/css">
	.st0{fill:#e0301e;}
</style>
<path class="st0" d="M0,0v132h132V0H0z M97.5,40.2c-4.1,0-7.4-3.3-7.4-7.4c0-4.1,3.3-7.4,7.4-7.4c4.1,0,7.4,3.3,7.4,7.4c0,2-0.8,3.8-2.2,5.2l0,0
	C101.4,39.5,99.5,40.2,97.5,40.2z M94.8,20.1c-7.1,1.5-11.5,8.5-10,15.5c1.1,5,5,8.9,10,10v80.8h-26v-17.9c2.4-0.5,4.7-1.7,6.4-3.5
	l0,0c5.1-5.1,5.1-13.4,0-18.5c-1.8-1.8-4-3-6.4-3.5V5.6h26L94.8,20.1z M34.6,59.3c4.1,0,7.5,3.3,7.4,7.5c0,4.1-3.3,7.5-7.5,7.4
	c-4.1,0-7.5-3.3-7.4-7.5c0-2,0.8-3.9,2.2-5.3C30.7,60,32.6,59.3,34.6,59.3z M37.2,79.5c7.1-1.5,11.6-8.4,10.1-15.4
	c-1.1-5.1-5-9.1-10.1-10.1V5.6h26v77.3c-7.1,1.5-11.5,8.5-10,15.5c1.1,5,5,8.9,10,10v17.9h-26V79.5z M66,103.2
	c-4.1,0-7.4-3.3-7.4-7.4c0-4.1,3.3-7.4,7.4-7.4s7.4,3.3,7.4,7.4c0,2-0.8,3.9-2.2,5.3C69.9,102.4,68,103.2,66,103.2z M5.6,5.6h26V54
	c-7,1.6-11.4,8.6-9.8,15.7c1.1,4.9,4.9,8.7,9.8,9.8v46.9h-26V5.6z M126.4,126.4h-26V45.6c7-1.6,11.5-8.6,9.9-15.6
	c-0.5-2.4-1.8-4.6-3.5-6.4c-1.7-1.8-4-3-6.4-3.5V5.6h26L126.4,126.4z"/>
</svg>
