<?xml version="1.0" encoding="utf-8"?>
<svg version="1.1" id="Layer_1" xmlns="http://www.w3.org/2000/svg" xmlns:xlink="http://www.w3.org/1999/xlink" x="0px" y="0px"
	 viewBox="0 0 132 132" style="enable-background:new 0 0 132 132;" xml:space="preserve" width="132" height="132">
<style type="text/css">
	.st0{fill:#D04A02;}
</style>
<g>
	<path class="st0" d="M68.9,101.2c-0.1,0.2-0.3,0.4-0.5,0.6c-0.2,0.2-0.4,0.3-0.7,0.4c-0.3,0.1-0.5,0.1-0.8,0.2v-3.9c0.8,0.2,1.4,0.5,1.7,0.7
			c0.3,0.3,0.5,0.7,0.5,1.2C69.1,100.7,69.1,101,68.9,101.2L68.9,101.2z M65.7,95.2c-0.7-0.1-1.1-0.3-1.4-0.6
			c-0.3-0.2-0.4-0.6-0.4-1c0-0.3,0.1-0.5,0.2-0.7c0.1-0.2,0.2-0.4,0.4-0.5c0.2-0.1,0.4-0.2,0.6-0.3c0.2-0.1,0.4-0.1,0.7-0.1V95.2
			L65.7,95.2z M71.5,98c-0.3-0.4-0.7-0.9-1.2-1.3c-0.5-0.4-1.3-0.7-2.3-1c-0.2-0.1-0.4-0.1-0.5-0.1c-0.2,0-0.3-0.1-0.5-0.1v-3.6
			c0.5,0,0.9,0.2,1.2,0.6c0.3,0.4,0.5,0.8,0.5,1.4h2.9c0-0.7-0.2-1.3-0.4-1.8c-0.3-0.5-0.6-1-1-1.3c-0.4-0.3-0.9-0.6-1.4-0.8
			c-0.5-0.2-1.1-0.3-1.7-0.4v-1.6h-1.2v1.6c-0.6,0-1.2,0.2-1.8,0.4c-0.6,0.2-1.1,0.5-1.5,0.8c-0.4,0.4-0.8,0.8-1.1,1.3
			c-0.3,0.5-0.4,1.1-0.4,1.8c0,0.7,0.1,1.2,0.3,1.7c0.2,0.5,0.5,0.8,0.9,1.1c0.4,0.3,0.8,0.6,1.3,0.7c0.5,0.2,1,0.3,1.5,0.5
			c0.1,0,0.3,0.1,0.4,0.1c0.1,0,0.2,0.1,0.3,0.1v4.3c-0.6-0.1-1.2-0.4-1.6-0.9c-0.4-0.5-0.6-1.1-0.6-1.8h-2.9
			c0.1,1.6,0.6,2.8,1.5,3.7c0.9,0.8,2,1.3,3.6,1.4v1.7h1.2v-1.7c1-0.1,1.9-0.3,2.5-0.6c0.7-0.3,1.2-0.7,1.6-1.2
			c0.4-0.4,0.7-0.9,0.8-1.3c0.1-0.5,0.2-0.8,0.2-1.1c0-0.3,0-0.7-0.1-1.2C71.9,98.9,71.8,98.5,71.5,98L71.5,98z M66,111.4
			c-7.5,0-13.6-6.1-13.6-13.6c0-7.5,6.1-13.6,13.6-13.6c7.5,0,13.6,6.1,13.6,13.6C79.6,105.3,73.5,111.4,66,111.4L66,111.4z
			 M66,78.5c-10.6,0-19.2,8.6-19.2,19.2c0,10.6,8.6,19.2,19.2,19.2c10.6,0,19.2-8.6,19.2-19.2C85.2,87.2,76.6,78.5,66,78.5L66,78.5z
			 M5.6,15.6v-10h120.7v10H5.6L5.6,15.6z M5.6,31.3v-10h120.7v10H5.6L5.6,31.3z M5.6,46.9v-10h120.7v10H5.6L5.6,46.9z M126.4,63.5
			H5.6v-3.4v-7.6h120.7v7.6V63.5L126.4,63.5z M126.4,79.6c-5.2-1.1-9.4-5.2-10.5-10.5h10.5V79.6L126.4,79.6z M126.4,110.2
			c-8.3,1.2-14.9,7.8-16.2,16.2H21.8c-1.2-8.3-7.8-14.9-16.2-16.2V96.9V85.3c8.3-1.2,14.9-7.8,16.2-16.2h88.4
			c1.2,8.3,7.8,14.9,16.2,16.2v11.6V110.2L126.4,110.2z M115.9,126.4c1.1-5.2,5.2-9.4,10.5-10.5v10.5H115.9L115.9,126.4z M5.6,115.9
			c5.2,1.1,9.4,5.2,10.5,10.5H5.6V115.9L5.6,115.9z M5.6,69.2h10.5c-1.1,5.2-5.2,9.4-10.5,10.5V69.2L5.6,69.2z M0,0L0,0v132h0h132
			v-19.4V96.9V81.3V63.5v-3.4V46.9V31.3V15.6V0v0H0L0,0z"/>
</g>
</svg>
