<?xml version="1.0" encoding="utf-8"?>
<svg version="1.1" id="Layer_1" xmlns="http://www.w3.org/2000/svg" xmlns:xlink="http://www.w3.org/1999/xlink" x="0px" y="0px"
	 viewBox="0 0 132 132" style="enable-background:new 0 0 132 132;" xml:space="preserve" width="132" height="132">
<style type="text/css">
	.st0{fill:#D04A02;}
</style>
<g>
	<path class="st0" d="M126.4,126.4h-19.9V63.2H88.7c-1.4-12-11.6-21.4-24-21.4H41.8c-12.4,0-22.6,9.4-24,21.4H5.6V27h120.7V126.4L126.4,126.4z
			 M23.5,63.2c1.4-8.9,9.1-15.7,18.3-15.7h22.9c9.3,0,17,6.8,18.3,15.7H23.5L23.5,63.2z M5.6,126.4V68.8h12h71.2h12v57.6H5.6
			L5.6,126.4z M36,5.6H96v15.7H36V5.6L36,5.6z M101.6,21.4V0H30.4v21.4H0v31.1V132h106.5H132V21.4H101.6L101.6,21.4z"/>
	</g>
</svg>
