<?xml version="1.0" encoding="utf-8"?>
<svg version="1.1" id="Layer_1" xmlns="http://www.w3.org/2000/svg" xmlns:xlink="http://www.w3.org/1999/xlink" x="0px" y="0px"
	 viewBox="0 0 132 132" style="enable-background:new 0 0 132 132;" xml:space="preserve" width="132" height="132">
<style type="text/css">
	.st0{fill:#D04A02;}
</style>
<path class="st0" d="M0,0v132h132V0H0z M44.7,34.3c0-4.9,4-8.9,8.9-8.9c4.9,0,8.9,4,8.9,8.9c0,4.9-4,8.9-8.9,8.9c0,0,0,0,0,0
	C48.7,43.2,44.7,39.2,44.7,34.3z M126.4,126.4H82.7v-13.4l23.2-19.3V51.1c7.9-1.6,13-9.2,11.4-17.1c-1.6-7.9-9.2-13-17.1-11.4
	c-7.9,1.6-13,9.2-11.4,17.1c1.1,5.8,5.7,10.3,11.4,11.4V91l-23.2,19.3v16.1h-6.5V98.7l10.6-9.2v-14c7.9-1.6,13-9.2,11.4-17.1
	s-9.2-13-17.1-11.4s-13,9.2-11.4,17.1c1.1,5.8,5.7,10.3,11.4,11.4v11.4L65,96.1v30.3h-6.7l-1.8-77.8c7.9-1.6,13-9.2,11.5-17.1
	c-1.6-7.9-9.2-13-17.1-11.5c-7.9,1.6-13,9.2-11.5,17.1c1.1,5.8,5.7,10.3,11.5,11.5l1.8,77.8h-6.6V90.3l-12-14.4
	c7.5-2.9,11.2-11.3,8.3-18.8c-2.9-7.5-11.3-11.2-18.8-8.3c-7.5,2.9-11.2,11.3-8.3,18.8c2,5.1,6.7,8.7,12.2,9.2l13,15.6v34.1H5.7V5.6
	h120.7V126.4z M103.1,45.8c-4.9,0-8.9-4-8.9-8.9c0-4.9,4-8.9,8.9-8.9c4.9,0,8.9,4,8.9,8.9c0,0,0,0,0,0C112,41.8,108,45.8,103.1,45.8
	z M78.4,70.2c-4.9,0-8.9-4-8.9-8.9c0-4.9,4-8.9,8.9-8.9c4.9,0,8.9,4,8.9,8.9c0,0,0,0,0,0C87.3,66.2,83.3,70.2,78.4,70.2L78.4,70.2z
	 M20,62.3c0-4.9,4-8.9,8.9-8.9c4.9,0,8.9,4,8.9,8.9s-4,8.9-8.9,8.9c0,0,0,0,0,0C24,71.2,20,67.2,20,62.3L20,62.3z"/>
</svg>
