<?xml version="1.0" encoding="utf-8"?>
<svg version="1.1" id="Layer_1" xmlns="http://www.w3.org/2000/svg" xmlns:xlink="http://www.w3.org/1999/xlink" x="0px" y="0px"
	 viewBox="0 0 132 132" style="enable-background:new 0 0 132 132;" xml:space="preserve" width="132" height="132">
<style type="text/css">
	.st0{fill:#D04A02;}
</style>
<path class="st0" d="M0,0v132h132V0H0z M126.4,5.6V90c-3.1-0.2-6-1-8.8-2.3c-2.2-1-4.5-1.8-6.9-2.3L123,61.3h-13.8V40.8H91.1V30.6H50.7v30.7
	h-1.2l-5.4-7.6H41L33.3,37h-3.5v-9.1H17.8V37h-4.7v16.7h-4l12.3,24.5l-10.8,11h-0.1C8.9,89.7,7.3,90,5.6,90V5.6H126.4z M10.5,89.2
	L10.5,89.2L10.5,89.2L10.5,89.2z M29.8,40.9h0.9l5.9,12.8H17V40.9H29.8L29.8,40.9z M21.7,37v-5.1h4.2V37H21.7z M42,57.6l5.4,7.6
	h69.2l-5.7,11.3H25l-9.5-19H42z M68.9,44.8v6.3H54.6v-6.3H68.9z M54.6,40.8v-6.3h14.3v6.3H54.6z M68.9,55v6.3H54.6V55L68.9,55z
	 M87.1,44.8v6.3H72.8v-6.3H87.1z M72.8,40.8v-6.3h14.3v6.3H72.8z M87.1,55v6.3H72.8V55L87.1,55z M105.3,55v6.3H91.1V55L105.3,55z
	 M91.1,51.1v-6.3h14.3v6.3L91.1,51.1z M108.9,80.5l-2.4,4.4h-0.4c-3.7-0.1-7.3,0.9-10.4,2.8c-2.6,1.6-5.6,2.4-8.6,2.3
	c-3.1,0-5-0.9-7.4-2c-4-2.1-8.4-3.1-12.9-3.1c-4.4-0.1-8.7,0.9-12.6,2.9c-2.7,1.4-5.6,2.2-8.7,2.2c-4.1,0-6.9-1.1-9.8-2.4
	c-3.2-1.3-6.4-2.8-11.5-2.8c-1.5,0-3.1,0.1-4.6,0.5c0.5-0.4,0.9-0.8,1-0.9l4-4L108.9,80.5z M5.6,126.4V94.6c3.6,0,7.2-1,10.3-2.8
	c2.5-1.5,5.4-2.3,8.3-2.2c4.1,0,6.8,1.1,9.7,2.4c3.2,1.3,6.5,2.8,11.5,2.8c3.7,0,7.3-0.9,10.6-2.6c3.3-1.7,7-2.5,10.7-2.5
	c3.8-0.1,7.6,0.8,10.9,2.6c2.9,1.6,6.1,2.4,9.4,2.5c3.8,0.1,7.5-0.9,10.7-2.8c2.5-1.5,5.4-2.3,8.3-2.2c4.1,0,6.8,1.1,9.8,2.4
	c3.3,1.6,6.9,2.5,10.6,2.7v31.8L5.6,126.4z"/>
<ellipse class="st0" cx="30.7" cy="62.9" rx="2.6" ry="2.5"/>
<ellipse class="st0" cx="37.2" cy="62.9" rx="2.6" ry="2.5"/>
<polygon class="st0" points="31.2,47.7 19.4,47.7 19.4,52.3 33.5,52.3 "/>
</svg>
