<?xml version="1.0" encoding="utf-8"?>
<svg version="1.1" id="Layer_1" xmlns="http://www.w3.org/2000/svg" xmlns:xlink="http://www.w3.org/1999/xlink" x="0px" y="0px"
	 viewBox="0 0 132 132" style="enable-background:new 0 0 132 132;" xml:space="preserve" width="132" height="132">
<style type="text/css">
	.st0{fill:#D04A02;}
</style>
<g>
	<path class="st0" d="M95.6,61.4h5.6v39.4h-5.6V61.4L95.6,61.4z M106.9,106.4V55.7H90v50.6H106.9L106.9,106.4z M73.8,61.4h5.6v39.4h-5.6V61.4
			L73.8,61.4z M85,106.4V55.7H68.1v50.6H85L85,106.4z M51.9,61.4h5.6v39.4h-5.6V61.4L51.9,61.4z M63.1,106.4V55.7H46.3v50.6H63.1
			L63.1,106.4z M30,61.4h5.6v39.4H30V61.4L30,61.4z M41.3,106.4V55.7H24.4v50.6H41.3L41.3,106.4z M69.2,23.9h10.1V25v7.5H69.2V23.9
			L69.2,23.9z M91,30.6v7.1h-6v-7.1H91L91,30.6z M114.4,46.7H69.2v-8.6h10.1v5.3h17.3V25H85v-6.7H63.6v28.5H16.9v5.6h97.5V46.7
			L114.4,46.7z M114.4,115.4H16.9v-5.6h97.5V115.4L114.4,115.4z M126.4,126.4H5.6V5.6h120.7V126.4L126.4,126.4z M0,0v132h132V0H0
			L0,0z"/>
</g>
</svg>
