<?xml version="1.0" encoding="utf-8"?>
<svg version="1.1" id="Layer_1" xmlns="http://www.w3.org/2000/svg" xmlns:xlink="http://www.w3.org/1999/xlink" x="0px" y="0px"
	 viewBox="0 0 132 132" style="enable-background:new 0 0 132 132;" xml:space="preserve" width="132" height="132">
<style type="text/css">
	.st0{fill:#D04A02;}
</style>
<path class="st0" d="M94.8,25.5H80.4v-6c0-1.6-1.3-2.8-2.8-2.8c0,0,0,0,0,0H50.7c-1.6,0-2.8,1.3-2.8,2.8c0,0,0,0,0,0v6H33.5v43.1h61.3V25.5z
	 M53.6,22.4h21.2v3.2H53.5L53.6,22.4z M50.7,31.2h38.5v6.6L64.2,45l-25-7.2v-6.6H50.7z M39.2,63V43.6l25,7.2l25-7.2V63H39.2z"/>
<path class="st0" d="M132,0H0v132h36.5l0,0l0,0H132V0z M5.6,125.3c4.6-4.5,32.7-32.4,35.4-35.1c0.6-0.6,1.1-1.1,1.5-1.6c1.6-1.7,1.7-1.8,3.2-1.8
	h28h0.4c0,0,3.9-0.4,4.9,1.6c0.6,1.5,0.6,3.1-0.2,4.5c-0.2,0.3-0.4,0.6-0.8,0.8c-1.2,0.3-2.4,0.4-3.7,0.3h-1.1H48.5v5.6h24.9h0.9
	c1.1,0,2.1,0,3.2-0.1c0.9,0,1.9-0.2,2.8-0.6c3.1-1,6.7-3.3,11.3-8.3c7.5-8.3,15.9-16,19-18.9l0.8-0.7c0.9-0.9,2.1-1.3,3.4-1.3
	c0.7,0,1.4,0.4,1.9,1c1.8,2.2,0,4.8-0.4,5.2c-0.8,0.8-4.9,4.8-9.7,9.5c-8.1,7.9-18.2,17.7-20.1,19.7l-0.1,0.1
	c-1.5,1.6-3.9,4.1-8.6,4.1h-26l-17.4,17.2H5.6V125.3z M126.4,126.4H42.3L54,114.9h23.7c4.9,0,9.5-2.1,12.6-5.8l0.1-0.1
	c1.8-1.9,12.3-12.1,19.9-19.5c5-4.9,8.9-8.7,9.8-9.5c2.5-2.6,4.5-8.3,0.8-12.8c-1.4-1.8-3.6-2.9-5.9-3c-2.8-0.1-5.6,0.9-7.7,2.8
	l-0.8,0.7c-3.2,2.9-11.7,10.8-19.4,19.3c-0.8,0.9-1.5,1.6-2.2,2.3c-0.1-1.2-0.4-2.3-1-3.4c-2.2-4.3-7.5-4.9-10.4-4.6H45.7
	c-3.9,0-5.5,1.7-7.3,3.7c-0.4,0.4-0.9,0.9-1.4,1.5c-2.2,2.2-22.2,22-31.4,31.2V5.6h120.8V126.4z"/>
</svg>
